<?xml version="1.0" encoding="iso-8859-1"?>
<!-- Generator: Adobe Illustrator 20.1.0, SVG Export Plug-In . SVG Version: 6.00 Build 0)  -->
<svg xmlns="http://www.w3.org/2000/svg" xmlns:xlink="http://www.w3.org/1999/xlink" version="1.1" id="&#1057;&#1083;&#1086;&#1081;_1" x="0px" y="0px" viewBox="0 0 64 64" style="enable-background:new 0 0 64 64;" xml:space="preserve" width="96px" height="96px">
<linearGradient id="SVGID_1__48201" gradientUnits="userSpaceOnUse" x1="32" y1="7.6667" x2="32" y2="56.7145" spreadMethod="reflect">
	<stop offset="0" style="stop-color:#1A6DFF"/>
	<stop offset="1" style="stop-color:#C822FF"/>
</linearGradient>
<path style="fill:url(#SVGID_1__48201);" d="M51,56H13c-2.757,0-5-2.243-5-5V13c0-2.757,2.243-5,5-5h38c2.757,0,5,2.243,5,5v38  C56,53.757,53.757,56,51,56z M13,10c-1.654,0-3,1.346-3,3v38c0,1.654,1.346,3,3,3h38c1.654,0,3-1.346,3-3V13c0-1.654-1.346-3-3-3H13  z"/>
<linearGradient id="SVGID_2__48201" gradientUnits="userSpaceOnUse" x1="20" y1="37.75" x2="20" y2="48.25" spreadMethod="reflect">
	<stop offset="0" style="stop-color:#1A6DFF"/>
	<stop offset="1" style="stop-color:#C822FF"/>
</linearGradient>
<rect x="19" y="45" style="fill:url(#SVGID_2__48201);" width="2" height="3"/>
<linearGradient id="SVGID_3__48201" gradientUnits="userSpaceOnUse" x1="32" y1="7.6667" x2="32" y2="56.7145" spreadMethod="reflect">
	<stop offset="0" style="stop-color:#1A6DFF"/>
	<stop offset="1" style="stop-color:#C822FF"/>
</linearGradient>
<path style="fill:url(#SVGID_3__48201);" d="M50,52H14c-1.103,0-2-0.897-2-2V14c0-1.103,0.897-2,2-2h36c1.103,0,2,0.897,2,2v36  C52,51.103,51.103,52,50,52z M14,14v36h36V14H14z"/>
<linearGradient id="SVGID_4__48201" gradientUnits="userSpaceOnUse" x1="32" y1="17.875" x2="32" y2="33.0005" spreadMethod="reflect">
	<stop offset="0" style="stop-color:#6DC7FF"/>
	<stop offset="1" style="stop-color:#E6ABFF"/>
</linearGradient>
<path style="fill:url(#SVGID_4__48201);" d="M32.943,18.573l1.658,3.288c0.153,0.304,0.449,0.514,0.792,0.563l3.706,0.527  c0.862,0.123,1.207,1.16,0.583,1.756l-2.682,2.56c-0.248,0.237-0.361,0.577-0.302,0.911l0.633,3.614  c0.147,0.841-0.754,1.482-1.526,1.085l-3.315-1.706c-0.306-0.158-0.672-0.158-0.979,0l-3.315,1.706  c-0.771,0.397-1.673-0.244-1.526-1.085l0.633-3.614c0.059-0.334-0.055-0.675-0.302-0.911l-2.682-2.56  c-0.624-0.596-0.28-1.633,0.583-1.756l3.706-0.527c0.342-0.049,0.639-0.259,0.792-0.563l1.658-3.288  C31.443,17.808,32.557,17.808,32.943,18.573z"/>
<linearGradient id="SVGID_5__48201" gradientUnits="userSpaceOnUse" x1="24" y1="37.75" x2="24" y2="48.25" spreadMethod="reflect">
	<stop offset="0" style="stop-color:#1A6DFF"/>
	<stop offset="1" style="stop-color:#C822FF"/>
</linearGradient>
<rect x="23" y="43" style="fill:url(#SVGID_5__48201);" width="2" height="5"/>
<linearGradient id="SVGID_6__48201" gradientUnits="userSpaceOnUse" x1="28" y1="37.75" x2="28" y2="48.25" spreadMethod="reflect">
	<stop offset="0" style="stop-color:#1A6DFF"/>
	<stop offset="1" style="stop-color:#C822FF"/>
</linearGradient>
<rect x="27" y="40" style="fill:url(#SVGID_6__48201);" width="2" height="8"/>
<linearGradient id="SVGID_7__48201" gradientUnits="userSpaceOnUse" x1="32" y1="37.75" x2="32" y2="48.25" spreadMethod="reflect">
	<stop offset="0" style="stop-color:#1A6DFF"/>
	<stop offset="1" style="stop-color:#C822FF"/>
</linearGradient>
<rect x="31" y="38" style="fill:url(#SVGID_7__48201);" width="2" height="10"/>
<linearGradient id="SVGID_8__48201" gradientUnits="userSpaceOnUse" x1="36" y1="37.75" x2="36" y2="48.25" spreadMethod="reflect">
	<stop offset="0" style="stop-color:#1A6DFF"/>
	<stop offset="1" style="stop-color:#C822FF"/>
</linearGradient>
<rect x="35" y="40" style="fill:url(#SVGID_8__48201);" width="2" height="8"/>
<linearGradient id="SVGID_9__48201" gradientUnits="userSpaceOnUse" x1="40" y1="37.75" x2="40" y2="48.25" spreadMethod="reflect">
	<stop offset="0" style="stop-color:#1A6DFF"/>
	<stop offset="1" style="stop-color:#C822FF"/>
</linearGradient>
<rect x="39" y="43" style="fill:url(#SVGID_9__48201);" width="2" height="5"/>
<linearGradient id="SVGID_10__48201" gradientUnits="userSpaceOnUse" x1="44" y1="37.75" x2="44" y2="48.25" spreadMethod="reflect">
	<stop offset="0" style="stop-color:#1A6DFF"/>
	<stop offset="1" style="stop-color:#C822FF"/>
</linearGradient>
<rect x="43" y="45" style="fill:url(#SVGID_10__48201);" width="2" height="3"/>
</svg>
